<svg width="1440" height="1024" viewBox="0 0 1440 1024" fill="none" xmlns="http://www.w3.org/2000/svg">
<path d="M464.96 1106.51C360.988 1121.39 279.538 1094.18 231.804 1038.29C184.07 982.41 169.921 897.707 200.879 797.34C231.838 696.971 302.027 600.029 390.508 524.451C478.989 448.873 585.71 394.702 689.686 379.815C793.658 364.928 875.108 392.144 922.842 448.028C970.576 503.911 984.725 588.614 953.767 688.981C922.808 789.35 852.619 886.292 764.138 961.87C675.657 1037.45 568.935 1091.62 464.96 1106.51Z" stroke="url(#paint0_linear_655_1954)" stroke-width="1.29394"/>
<path d="M453.156 1093.12C349.064 1108.02 267.414 1080.78 219.533 1024.73C171.652 968.673 157.514 883.769 188.508 783.286C219.502 682.803 289.757 585.783 378.295 510.157C466.832 434.53 573.642 380.306 677.736 365.401C781.828 350.497 863.478 377.735 911.359 433.79C959.24 489.845 973.378 574.749 942.385 675.232C911.391 775.715 841.135 872.735 752.597 948.362C664.06 1023.99 557.25 1078.21 453.156 1093.12Z" stroke="url(#paint1_linear_655_1954)" stroke-width="0.258789"/>
<path d="M442.437 1156.1C320.692 1171.16 224.328 1136.99 166.862 1069.71C109.397 1002.44 90.7168 901.918 124.619 784.023C158.522 666.123 238.581 553.244 340.638 466.069C442.695 378.895 566.702 317.467 688.453 302.412C810.198 287.357 906.562 321.522 964.027 388.798C1021.49 456.074 1040.17 556.594 1006.27 674.489C972.367 792.389 892.309 905.268 790.252 992.443C688.195 1079.62 564.188 1141.05 442.437 1156.1Z" stroke="url(#paint2_linear_655_1954)" stroke-width="1.29394"/>
<path d="M442.437 1156.1C320.692 1171.16 224.328 1136.99 166.862 1069.71C109.397 1002.44 90.7168 901.918 124.619 784.023C158.522 666.123 238.581 553.244 340.638 466.069C442.695 378.895 566.702 317.467 688.453 302.412C810.198 287.357 906.562 321.522 964.027 388.798C1021.49 456.074 1040.17 556.594 1006.27 674.489C972.367 792.389 892.309 905.268 790.252 992.443C688.195 1079.62 564.188 1141.05 442.437 1156.1Z" stroke="url(#paint3_linear_655_1954)" stroke-opacity="0.2" stroke-width="1.29394"/>
<path d="M431.652 1143.44C305.163 1152.93 202.543 1111.49 138.826 1036.89C75.1084 962.299 50.2179 854.461 79.3693 731.012C108.523 607.555 186.2 491.904 288.247 404.738C390.295 317.572 516.667 258.929 643.164 249.434C769.653 239.94 872.273 281.383 935.99 355.978C999.708 430.573 1024.6 538.411 995.447 661.86C966.293 785.317 888.616 900.968 786.569 988.134C684.521 1075.3 558.149 1133.94 431.652 1143.44Z" stroke="url(#paint4_linear_655_1954)" stroke-width="1.29394"/>
<rect x="400.942" y="650.309" width="4.91407" height="4.91407" transform="rotate(-85.503 400.942 650.309)" fill="#00F0FF" fill-opacity="0.5"/>
<rect x="401.143" y="452.04" width="2.02623" height="2.02624" transform="rotate(-85.503 401.143 452.04)" fill="#00F0FF"/>
<rect width="2.66099" height="2.66098" transform="matrix(-0.078406 0.996921 0.996922 0.0784061 800.726 414.664)" fill="#00F0FF"/>
<rect x="474.159" y="398.887" width="3.06444" height="3.06445" transform="rotate(-85.503 474.159 398.887)" fill="#00F0FF"/>
<rect x="482.954" y="443.552" width="1.81614" height="1.81614" transform="rotate(-85.503 482.954 443.552)" fill="#00F0FF"/>
<rect x="490.684" y="733.793" width="4.91407" height="4.91407" transform="rotate(-85.503 490.684 733.793)" fill="#00F0FF"/>
<rect x="348.106" y="821.149" width="4.91407" height="4.91407" transform="rotate(-85.503 348.106 821.149)" fill="#0500FF" fill-opacity="0.5"/>
<rect x="308.422" y="670.154" width="3.43443" height="3.43444" transform="rotate(-85.503 308.422 670.154)" fill="#3DFFFB"/>
<rect x="711.309" y="889.358" width="6.38829" height="6.3883" transform="rotate(-85.503 711.309 889.358)" fill="#0500FF" fill-opacity="0.5"/>
<rect width="6.82082" height="6.82082" transform="matrix(0.078411 -0.996921 0.996922 0.0784011 998.847 771.149)" fill="#0066FF" fill-opacity="0.5"/>
<rect width="13.7755" height="13.7755" transform="matrix(0.0784036 -0.996922 0.996921 0.0784085 1055.11 627.836)" fill="#0066FF" fill-opacity="0.5"/>
<rect width="6.41004" height="6.41004" transform="matrix(-0.0784061 0.996922 0.996922 0.0784061 898.758 429.793)" fill="#0066FF" fill-opacity="0.5"/>
<rect width="6.82082" height="6.82082" transform="matrix(0.078411 -0.996921 0.996922 0.0784011 1059.79 431.417)" fill="#0066FF" fill-opacity="0.5"/>
<rect width="6.82082" height="6.82082" transform="matrix(0.0784011 -0.996922 0.996921 0.078411 1084.14 895.891)" fill="#0066FF" fill-opacity="0.5"/>
<rect x="885.902" y="1017.35" width="6.82083" height="6.82083" transform="rotate(-85.503 885.902 1017.35)" fill="#0500FF" fill-opacity="0.5"/>
<rect width="4.77521" height="4.7752" transform="matrix(0.078399 -0.996922 0.996921 0.0784131 920.146 851.06)" fill="#0500FF" fill-opacity="0.5"/>
<rect x="939.766" y="910.693" width="8.88223" height="8.88223" transform="rotate(-85.503 939.766 910.693)" fill="#0500FF" fill-opacity="0.5"/>
<rect width="5.8419" height="5.8419" transform="matrix(-0.958331 -0.28566 0.285693 -0.958321 779.016 626.101)" fill="#0066FF" fill-opacity="0.5"/>
<rect width="4.5702" height="4.5702" transform="matrix(-0.996921 -0.0784134 0.0783987 -0.996922 667.302 548.423)" fill="#00D1FF"/>
<rect width="5.49007" height="5.49007" transform="matrix(0.958326 0.285676 0.285676 -0.958326 475.383 648.611)" fill="#001AFF" fill-opacity="0.5"/>
<rect x="505.636" y="514.14" width="5.8419" height="5.8419" transform="rotate(-163.401 505.636 514.14)" fill="#0066FF" fill-opacity="0.5"/>
<rect width="5.8419" height="5.8419" transform="matrix(-0.958331 -0.28566 0.285693 -0.958321 898.71 577.103)" fill="#0066FF" fill-opacity="0.5"/>
<rect x="685.597" y="420.962" width="4.22361" height="4.22361" transform="rotate(-175.503 685.597 420.962)" fill="#0500FF" fill-opacity="0.5"/>
<rect width="4.08708" height="4.08708" transform="matrix(-0.958333 -0.285652 0.2857 -0.958319 831.767 706.302)" fill="#0500FF" fill-opacity="0.5"/>
<rect x="885.188" y="700.585" width="7.60226" height="7.60226" transform="rotate(-163.401 885.188 700.585)" fill="#0500FF" fill-opacity="0.5"/>
<rect width="3.27281" height="3.27281" transform="matrix(0.0784165 -0.996921 0.996922 0.0783957 442.574 655.643)" fill="#00FFF0" fill-opacity="0.6"/>
<rect x="413.789" y="871.501" width="3.68718" height="3.68718" transform="rotate(-85.503 413.789 871.501)" fill="#00FFF0"/>
<rect width="4.07109" height="4.07109" transform="matrix(-0.0784062 0.996921 0.996922 0.078406 290.268 613.48)" fill="#00FFF0"/>
<rect x="371.683" y="555.813" width="4.33199" height="4.33199" transform="rotate(-85.503 371.683 555.813)" fill="#00FFF0"/>
<rect width="4.33199" height="4.33199" transform="matrix(0.0783984 -0.996922 0.996921 0.0784138 688.536 725.421)" fill="#00FFF0" fill-opacity="0.5"/>
<rect x="575.858" y="777.194" width="2.37476" height="2.37476" transform="rotate(-85.503 575.858 777.194)" fill="#00FFF0" fill-opacity="0.5"/>
<rect x="498.018" y="923.674" width="4.33199" height="4.33199" transform="rotate(-120.813 498.018 923.674)" fill="#0500FF" fill-opacity="0.5"/>
<rect x="453.696" y="824.404" width="3.02452" height="3.02452" transform="rotate(-85.503 453.696 824.404)" fill="#00D1FF" fill-opacity="0.6"/>
<rect x="483.39" y="848.627" width="8.15041" height="8.15041" transform="rotate(-85.503 483.39 848.627)" fill="#6100FF" fill-opacity="0.5"/>
<g opacity="0.5">
<rect x="279.143" y="539.663" width="3.27281" height="3.27281" transform="rotate(-85.5031 279.143 539.663)" fill="#00FFF0" fill-opacity="0.6"/>
<rect width="3.68718" height="3.68718" transform="matrix(0.0784151 -0.996921 0.996922 0.0783971 250.358 755.521)" fill="#00FFF0"/>
<rect width="4.07109" height="4.07109" transform="matrix(-0.078406 0.996922 0.996921 0.0784062 126.838 497.504)" fill="#00FFF0"/>
<rect width="4.33199" height="4.33199" transform="matrix(0.0783982 -0.996922 0.996921 0.078414 208.252 439.833)" fill="#00FFF0"/>
<rect x="525.105" y="609.441" width="4.33199" height="4.33199" transform="rotate(-85.5031 525.105 609.441)" fill="#00FFF0" fill-opacity="0.5"/>
<rect x="412.428" y="661.213" width="2.37476" height="2.37476" transform="rotate(-85.5031 412.428 661.213)" fill="#00FFF0" fill-opacity="0.5"/>
<rect x="334.589" y="807.694" width="4.33199" height="4.33199" transform="rotate(-120.813 334.589 807.694)" fill="#0500FF" fill-opacity="0.5"/>
<rect x="290.267" y="708.424" width="3.02452" height="3.02452" transform="rotate(-85.5031 290.267 708.424)" fill="#00D1FF" fill-opacity="0.6"/>
<rect width="8.15041" height="8.15041" transform="matrix(0.0784018 -0.996922 0.996921 0.0784103 319.959 732.651)" fill="#6100FF" fill-opacity="0.5"/>
</g>
<defs>
<linearGradient id="paint0_linear_655_1954" x1="300.091" y1="418.598" x2="601.452" y2="771.408" gradientUnits="userSpaceOnUse">
<stop stop-color="#8FBCFF" stop-opacity="0.6"/>
<stop offset="1" stop-color="#8FBCFF" stop-opacity="0"/>
</linearGradient>
<linearGradient id="paint1_linear_655_1954" x1="361.938" y1="491.008" x2="752.682" y2="948.461" gradientUnits="userSpaceOnUse">
<stop stop-color="#8FBCFF" stop-opacity="0.6"/>
<stop offset="1" stop-color="#8FBCFF" stop-opacity="0"/>
</linearGradient>
<linearGradient id="paint2_linear_655_1954" x1="218.501" y1="323.081" x2="631.585" y2="806.688" gradientUnits="userSpaceOnUse">
<stop stop-color="white" stop-opacity="0.6"/>
<stop offset="0.34375" stop-color="#8FBCFF" stop-opacity="0.6"/>
<stop offset="1" stop-color="#8FBCFF" stop-opacity="0"/>
</linearGradient>
<linearGradient id="paint3_linear_655_1954" x1="595.939" y1="327.565" x2="635.061" y2="497.018" gradientUnits="userSpaceOnUse">
<stop stop-color="#FF48D7"/>
<stop offset="0.234164" stop-color="white" stop-opacity="0.765836"/>
<stop offset="1" stop-color="#FF48D7" stop-opacity="0"/>
</linearGradient>
<linearGradient id="paint4_linear_655_1954" x1="266.138" y1="378.852" x2="565.203" y2="728.975" gradientUnits="userSpaceOnUse">
<stop stop-color="#8FBCFF" stop-opacity="0.6"/>
<stop offset="1" stop-color="#8FBCFF" stop-opacity="0"/>
</linearGradient>
</defs>
</svg>
